<mxfile host="app.diagrams.net" modified="2024-01-31T14:10:42.339Z" agent="Mozilla/5.0 (Windows NT 10.0; Win64; x64) AppleWebKit/537.36 (KHTML, like Gecko) Chrome/121.0.0.0 Safari/537.36" version="23.0.2" etag="vhrXsLaayBOYAX7c6s8S" type="device">
  <diagram id="HU4uo2aEZg4H9Ib9Y20f" name="第 1 页">
    <mxGraphModel dx="774" dy="498" grid="1" gridSize="10" guides="1" tooltips="1" connect="1" arrows="1" fold="1" page="1" pageScale="1" pageWidth="827" pageHeight="1169" math="0" shadow="0">
      <root>
        <mxCell id="0" />
        <mxCell id="1" parent="0" />
        <mxCell id="dhW5SiGHPYzBhZiWGdAr-79" value="" style="group" vertex="1" connectable="0" parent="1">
          <mxGeometry x="60" y="60" width="624" height="288" as="geometry" />
        </mxCell>
        <mxCell id="dhW5SiGHPYzBhZiWGdAr-40" value="" style="group" vertex="1" connectable="0" parent="dhW5SiGHPYzBhZiWGdAr-79">
          <mxGeometry width="280" height="288" as="geometry" />
        </mxCell>
        <mxCell id="dhW5SiGHPYzBhZiWGdAr-36" value="" style="group;fontFamily=Times New Roman;" vertex="1" connectable="0" parent="dhW5SiGHPYzBhZiWGdAr-40">
          <mxGeometry width="280" height="240" as="geometry" />
        </mxCell>
        <mxCell id="dhW5SiGHPYzBhZiWGdAr-1" value="" style="ellipse;whiteSpace=wrap;html=1;aspect=fixed;strokeWidth=2;" vertex="1" parent="dhW5SiGHPYzBhZiWGdAr-36">
          <mxGeometry x="120" y="100" width="40" height="40" as="geometry" />
        </mxCell>
        <mxCell id="dhW5SiGHPYzBhZiWGdAr-2" value="" style="ellipse;whiteSpace=wrap;html=1;aspect=fixed;strokeWidth=2;" vertex="1" parent="dhW5SiGHPYzBhZiWGdAr-36">
          <mxGeometry x="240" y="100" width="40" height="40" as="geometry" />
        </mxCell>
        <mxCell id="dhW5SiGHPYzBhZiWGdAr-3" value="" style="ellipse;whiteSpace=wrap;html=1;aspect=fixed;strokeWidth=2;" vertex="1" parent="dhW5SiGHPYzBhZiWGdAr-36">
          <mxGeometry x="120" width="40" height="40" as="geometry" />
        </mxCell>
        <mxCell id="dhW5SiGHPYzBhZiWGdAr-4" value="" style="ellipse;whiteSpace=wrap;html=1;aspect=fixed;strokeWidth=2;" vertex="1" parent="dhW5SiGHPYzBhZiWGdAr-36">
          <mxGeometry y="100" width="40" height="40" as="geometry" />
        </mxCell>
        <mxCell id="dhW5SiGHPYzBhZiWGdAr-5" value="" style="ellipse;whiteSpace=wrap;html=1;aspect=fixed;strokeWidth=2;" vertex="1" parent="dhW5SiGHPYzBhZiWGdAr-36">
          <mxGeometry x="60" y="200" width="40" height="40" as="geometry" />
        </mxCell>
        <mxCell id="dhW5SiGHPYzBhZiWGdAr-6" value="" style="ellipse;whiteSpace=wrap;html=1;aspect=fixed;strokeWidth=2;" vertex="1" parent="dhW5SiGHPYzBhZiWGdAr-36">
          <mxGeometry x="180" y="200" width="40" height="40" as="geometry" />
        </mxCell>
        <mxCell id="dhW5SiGHPYzBhZiWGdAr-7" value="" style="endArrow=none;html=1;rounded=0;strokeWidth=2;" edge="1" parent="dhW5SiGHPYzBhZiWGdAr-36" source="dhW5SiGHPYzBhZiWGdAr-4" target="dhW5SiGHPYzBhZiWGdAr-1">
          <mxGeometry width="50" height="50" relative="1" as="geometry">
            <mxPoint x="290" y="230" as="sourcePoint" />
            <mxPoint x="340" y="180" as="targetPoint" />
          </mxGeometry>
        </mxCell>
        <mxCell id="dhW5SiGHPYzBhZiWGdAr-8" value="" style="endArrow=none;html=1;rounded=0;strokeWidth=2;" edge="1" parent="dhW5SiGHPYzBhZiWGdAr-36" source="dhW5SiGHPYzBhZiWGdAr-6" target="dhW5SiGHPYzBhZiWGdAr-1">
          <mxGeometry width="50" height="50" relative="1" as="geometry">
            <mxPoint x="290" y="230" as="sourcePoint" />
            <mxPoint x="340" y="180" as="targetPoint" />
          </mxGeometry>
        </mxCell>
        <mxCell id="dhW5SiGHPYzBhZiWGdAr-9" value="" style="endArrow=none;html=1;rounded=0;strokeWidth=2;" edge="1" parent="dhW5SiGHPYzBhZiWGdAr-36" source="dhW5SiGHPYzBhZiWGdAr-1" target="dhW5SiGHPYzBhZiWGdAr-2">
          <mxGeometry width="50" height="50" relative="1" as="geometry">
            <mxPoint x="290" y="230" as="sourcePoint" />
            <mxPoint x="340" y="180" as="targetPoint" />
          </mxGeometry>
        </mxCell>
        <mxCell id="dhW5SiGHPYzBhZiWGdAr-10" value="" style="endArrow=none;html=1;rounded=0;strokeWidth=2;" edge="1" parent="dhW5SiGHPYzBhZiWGdAr-36" source="dhW5SiGHPYzBhZiWGdAr-6" target="dhW5SiGHPYzBhZiWGdAr-2">
          <mxGeometry width="50" height="50" relative="1" as="geometry">
            <mxPoint x="290" y="230" as="sourcePoint" />
            <mxPoint x="340" y="180" as="targetPoint" />
          </mxGeometry>
        </mxCell>
        <mxCell id="dhW5SiGHPYzBhZiWGdAr-11" value="" style="endArrow=none;html=1;rounded=0;strokeWidth=2;" edge="1" parent="dhW5SiGHPYzBhZiWGdAr-36" source="dhW5SiGHPYzBhZiWGdAr-5" target="dhW5SiGHPYzBhZiWGdAr-6">
          <mxGeometry width="50" height="50" relative="1" as="geometry">
            <mxPoint x="290" y="230" as="sourcePoint" />
            <mxPoint x="340" y="180" as="targetPoint" />
          </mxGeometry>
        </mxCell>
        <mxCell id="dhW5SiGHPYzBhZiWGdAr-12" value="" style="endArrow=none;html=1;rounded=0;strokeWidth=2;" edge="1" parent="dhW5SiGHPYzBhZiWGdAr-36" source="dhW5SiGHPYzBhZiWGdAr-4" target="dhW5SiGHPYzBhZiWGdAr-3">
          <mxGeometry width="50" height="50" relative="1" as="geometry">
            <mxPoint x="290" y="230" as="sourcePoint" />
            <mxPoint x="340" y="180" as="targetPoint" />
          </mxGeometry>
        </mxCell>
        <mxCell id="dhW5SiGHPYzBhZiWGdAr-13" value="" style="endArrow=none;html=1;rounded=0;strokeWidth=2;" edge="1" parent="dhW5SiGHPYzBhZiWGdAr-36" source="dhW5SiGHPYzBhZiWGdAr-5" target="dhW5SiGHPYzBhZiWGdAr-4">
          <mxGeometry width="50" height="50" relative="1" as="geometry">
            <mxPoint x="290" y="230" as="sourcePoint" />
            <mxPoint x="340" y="180" as="targetPoint" />
          </mxGeometry>
        </mxCell>
        <mxCell id="dhW5SiGHPYzBhZiWGdAr-14" value="" style="endArrow=none;html=1;rounded=0;strokeWidth=2;" edge="1" parent="dhW5SiGHPYzBhZiWGdAr-36" source="dhW5SiGHPYzBhZiWGdAr-5" target="dhW5SiGHPYzBhZiWGdAr-1">
          <mxGeometry width="50" height="50" relative="1" as="geometry">
            <mxPoint x="290" y="230" as="sourcePoint" />
            <mxPoint x="340" y="180" as="targetPoint" />
          </mxGeometry>
        </mxCell>
        <mxCell id="dhW5SiGHPYzBhZiWGdAr-15" value="" style="endArrow=none;html=1;rounded=0;entryX=0.5;entryY=1;entryDx=0;entryDy=0;strokeWidth=2;" edge="1" parent="dhW5SiGHPYzBhZiWGdAr-36" source="dhW5SiGHPYzBhZiWGdAr-1" target="dhW5SiGHPYzBhZiWGdAr-3">
          <mxGeometry width="50" height="50" relative="1" as="geometry">
            <mxPoint x="290" y="230" as="sourcePoint" />
            <mxPoint x="340" y="180" as="targetPoint" />
          </mxGeometry>
        </mxCell>
        <mxCell id="dhW5SiGHPYzBhZiWGdAr-16" value="" style="endArrow=none;html=1;rounded=0;strokeWidth=2;" edge="1" parent="dhW5SiGHPYzBhZiWGdAr-36" source="dhW5SiGHPYzBhZiWGdAr-3" target="dhW5SiGHPYzBhZiWGdAr-2">
          <mxGeometry width="50" height="50" relative="1" as="geometry">
            <mxPoint x="290" y="230" as="sourcePoint" />
            <mxPoint x="340" y="180" as="targetPoint" />
          </mxGeometry>
        </mxCell>
        <mxCell id="dhW5SiGHPYzBhZiWGdAr-17" value="&lt;font style=&quot;font-size: 19px;&quot; face=&quot;Times New Roman&quot;&gt;2&lt;/font&gt;" style="text;html=1;align=center;verticalAlign=middle;resizable=0;points=[];autosize=1;strokeColor=none;fillColor=none;" vertex="1" parent="dhW5SiGHPYzBhZiWGdAr-36">
          <mxGeometry x="5" y="100" width="30" height="40" as="geometry" />
        </mxCell>
        <mxCell id="dhW5SiGHPYzBhZiWGdAr-18" value="&lt;font style=&quot;font-size: 19px;&quot; face=&quot;Times New Roman&quot;&gt;1&lt;/font&gt;" style="text;html=1;align=center;verticalAlign=middle;resizable=0;points=[];autosize=1;strokeColor=none;fillColor=none;" vertex="1" parent="dhW5SiGHPYzBhZiWGdAr-36">
          <mxGeometry x="125" width="30" height="40" as="geometry" />
        </mxCell>
        <mxCell id="dhW5SiGHPYzBhZiWGdAr-19" value="&lt;font style=&quot;font-size: 19px;&quot; face=&quot;Times New Roman&quot;&gt;3&lt;/font&gt;" style="text;html=1;align=center;verticalAlign=middle;resizable=0;points=[];autosize=1;strokeColor=none;fillColor=none;" vertex="1" parent="dhW5SiGHPYzBhZiWGdAr-36">
          <mxGeometry x="125" y="100" width="30" height="40" as="geometry" />
        </mxCell>
        <mxCell id="dhW5SiGHPYzBhZiWGdAr-20" value="&lt;font style=&quot;font-size: 19px;&quot; face=&quot;Times New Roman&quot;&gt;5&lt;/font&gt;" style="text;html=1;align=center;verticalAlign=middle;resizable=0;points=[];autosize=1;strokeColor=none;fillColor=none;" vertex="1" parent="dhW5SiGHPYzBhZiWGdAr-36">
          <mxGeometry x="65" y="200" width="30" height="40" as="geometry" />
        </mxCell>
        <mxCell id="dhW5SiGHPYzBhZiWGdAr-21" value="&lt;font style=&quot;font-size: 19px;&quot; face=&quot;Times New Roman&quot;&gt;4&lt;/font&gt;" style="text;html=1;align=center;verticalAlign=middle;resizable=0;points=[];autosize=1;strokeColor=none;fillColor=none;" vertex="1" parent="dhW5SiGHPYzBhZiWGdAr-36">
          <mxGeometry x="245" y="100" width="30" height="40" as="geometry" />
        </mxCell>
        <mxCell id="dhW5SiGHPYzBhZiWGdAr-22" value="&lt;font style=&quot;font-size: 19px;&quot; face=&quot;Times New Roman&quot;&gt;6&lt;/font&gt;" style="text;html=1;align=center;verticalAlign=middle;resizable=0;points=[];autosize=1;strokeColor=none;fillColor=none;" vertex="1" parent="dhW5SiGHPYzBhZiWGdAr-36">
          <mxGeometry x="185" y="200" width="30" height="40" as="geometry" />
        </mxCell>
        <mxCell id="dhW5SiGHPYzBhZiWGdAr-23" value="&lt;font style=&quot;font-size: 19px;&quot; face=&quot;Times New Roman&quot;&gt;6&lt;/font&gt;" style="text;html=1;align=center;verticalAlign=middle;resizable=0;points=[];autosize=1;strokeColor=none;fillColor=none;" vertex="1" parent="dhW5SiGHPYzBhZiWGdAr-36">
          <mxGeometry x="55" y="36" width="30" height="40" as="geometry" />
        </mxCell>
        <mxCell id="dhW5SiGHPYzBhZiWGdAr-27" value="&lt;font style=&quot;font-size: 19px;&quot; face=&quot;Times New Roman&quot;&gt;5&lt;/font&gt;" style="text;html=1;align=center;verticalAlign=middle;resizable=0;points=[];autosize=1;strokeColor=none;fillColor=none;" vertex="1" parent="dhW5SiGHPYzBhZiWGdAr-36">
          <mxGeometry x="194" y="36" width="30" height="40" as="geometry" />
        </mxCell>
        <mxCell id="dhW5SiGHPYzBhZiWGdAr-28" value="&lt;font style=&quot;font-size: 19px;&quot; face=&quot;Times New Roman&quot;&gt;1&lt;/font&gt;" style="text;html=1;align=center;verticalAlign=middle;resizable=0;points=[];autosize=1;strokeColor=none;fillColor=none;" vertex="1" parent="dhW5SiGHPYzBhZiWGdAr-36">
          <mxGeometry x="112" y="52" width="30" height="40" as="geometry" />
        </mxCell>
        <mxCell id="dhW5SiGHPYzBhZiWGdAr-29" value="&lt;font style=&quot;font-size: 19px;&quot; face=&quot;Times New Roman&quot;&gt;5&lt;/font&gt;" style="text;html=1;align=center;verticalAlign=middle;resizable=0;points=[];autosize=1;strokeColor=none;fillColor=none;" vertex="1" parent="dhW5SiGHPYzBhZiWGdAr-36">
          <mxGeometry x="70" y="87" width="30" height="40" as="geometry" />
        </mxCell>
        <mxCell id="dhW5SiGHPYzBhZiWGdAr-30" value="&lt;font style=&quot;font-size: 19px;&quot; face=&quot;Times New Roman&quot;&gt;5&lt;/font&gt;" style="text;html=1;align=center;verticalAlign=middle;resizable=0;points=[];autosize=1;strokeColor=none;fillColor=none;" vertex="1" parent="dhW5SiGHPYzBhZiWGdAr-36">
          <mxGeometry x="180" y="88" width="30" height="40" as="geometry" />
        </mxCell>
        <mxCell id="dhW5SiGHPYzBhZiWGdAr-31" value="&lt;font style=&quot;font-size: 19px;&quot; face=&quot;Times New Roman&quot;&gt;3&lt;/font&gt;" style="text;html=1;align=center;verticalAlign=middle;resizable=0;points=[];autosize=1;strokeColor=none;fillColor=none;" vertex="1" parent="dhW5SiGHPYzBhZiWGdAr-36">
          <mxGeometry x="22" y="151" width="30" height="40" as="geometry" />
        </mxCell>
        <mxCell id="dhW5SiGHPYzBhZiWGdAr-32" value="&lt;font style=&quot;font-size: 19px;&quot; face=&quot;Times New Roman&quot;&gt;6&lt;/font&gt;" style="text;html=1;align=center;verticalAlign=middle;resizable=0;points=[];autosize=1;strokeColor=none;fillColor=none;" vertex="1" parent="dhW5SiGHPYzBhZiWGdAr-36">
          <mxGeometry x="81" y="151" width="30" height="40" as="geometry" />
        </mxCell>
        <mxCell id="dhW5SiGHPYzBhZiWGdAr-33" value="&lt;font style=&quot;font-size: 19px;&quot; face=&quot;Times New Roman&quot;&gt;4&lt;/font&gt;" style="text;html=1;align=center;verticalAlign=middle;resizable=0;points=[];autosize=1;strokeColor=none;fillColor=none;" vertex="1" parent="dhW5SiGHPYzBhZiWGdAr-36">
          <mxGeometry x="169" y="151" width="30" height="40" as="geometry" />
        </mxCell>
        <mxCell id="dhW5SiGHPYzBhZiWGdAr-34" value="&lt;font style=&quot;font-size: 19px;&quot; face=&quot;Times New Roman&quot;&gt;2&lt;/font&gt;" style="text;html=1;align=center;verticalAlign=middle;resizable=0;points=[];autosize=1;strokeColor=none;fillColor=none;" vertex="1" parent="dhW5SiGHPYzBhZiWGdAr-36">
          <mxGeometry x="226" y="151" width="30" height="40" as="geometry" />
        </mxCell>
        <mxCell id="dhW5SiGHPYzBhZiWGdAr-35" value="&lt;font style=&quot;font-size: 19px;&quot; face=&quot;Times New Roman&quot;&gt;6&lt;/font&gt;" style="text;html=1;align=center;verticalAlign=middle;resizable=0;points=[];autosize=1;strokeColor=none;fillColor=none;" vertex="1" parent="dhW5SiGHPYzBhZiWGdAr-36">
          <mxGeometry x="125" y="189" width="30" height="40" as="geometry" />
        </mxCell>
        <mxCell id="dhW5SiGHPYzBhZiWGdAr-39" value="(a)" style="text;html=1;align=center;verticalAlign=middle;resizable=0;points=[];autosize=1;strokeColor=none;fillColor=none;labelPosition=center;verticalLabelPosition=middle;fontFamily=Times New Roman;fontSize=20;" vertex="1" parent="dhW5SiGHPYzBhZiWGdAr-40">
          <mxGeometry x="115" y="240" width="50" height="40" as="geometry" />
        </mxCell>
        <mxCell id="dhW5SiGHPYzBhZiWGdAr-42" value="" style="group" vertex="1" connectable="0" parent="dhW5SiGHPYzBhZiWGdAr-79">
          <mxGeometry x="344" width="280" height="288" as="geometry" />
        </mxCell>
        <mxCell id="dhW5SiGHPYzBhZiWGdAr-43" value="" style="group;fontFamily=Times New Roman;" vertex="1" connectable="0" parent="dhW5SiGHPYzBhZiWGdAr-42">
          <mxGeometry width="280" height="240" as="geometry" />
        </mxCell>
        <mxCell id="dhW5SiGHPYzBhZiWGdAr-44" value="" style="ellipse;whiteSpace=wrap;html=1;aspect=fixed;strokeWidth=2;" vertex="1" parent="dhW5SiGHPYzBhZiWGdAr-43">
          <mxGeometry x="120" y="100" width="40" height="40" as="geometry" />
        </mxCell>
        <mxCell id="dhW5SiGHPYzBhZiWGdAr-45" value="" style="ellipse;whiteSpace=wrap;html=1;aspect=fixed;strokeWidth=2;" vertex="1" parent="dhW5SiGHPYzBhZiWGdAr-43">
          <mxGeometry x="240" y="100" width="40" height="40" as="geometry" />
        </mxCell>
        <mxCell id="dhW5SiGHPYzBhZiWGdAr-46" value="" style="ellipse;whiteSpace=wrap;html=1;aspect=fixed;strokeWidth=2;" vertex="1" parent="dhW5SiGHPYzBhZiWGdAr-43">
          <mxGeometry x="120" width="40" height="40" as="geometry" />
        </mxCell>
        <mxCell id="dhW5SiGHPYzBhZiWGdAr-47" value="" style="ellipse;whiteSpace=wrap;html=1;aspect=fixed;strokeWidth=2;" vertex="1" parent="dhW5SiGHPYzBhZiWGdAr-43">
          <mxGeometry y="100" width="40" height="40" as="geometry" />
        </mxCell>
        <mxCell id="dhW5SiGHPYzBhZiWGdAr-48" value="" style="ellipse;whiteSpace=wrap;html=1;aspect=fixed;strokeWidth=2;" vertex="1" parent="dhW5SiGHPYzBhZiWGdAr-43">
          <mxGeometry x="60" y="200" width="40" height="40" as="geometry" />
        </mxCell>
        <mxCell id="dhW5SiGHPYzBhZiWGdAr-49" value="" style="ellipse;whiteSpace=wrap;html=1;aspect=fixed;strokeWidth=2;" vertex="1" parent="dhW5SiGHPYzBhZiWGdAr-43">
          <mxGeometry x="180" y="200" width="40" height="40" as="geometry" />
        </mxCell>
        <mxCell id="dhW5SiGHPYzBhZiWGdAr-50" value="" style="endArrow=none;html=1;rounded=0;strokeWidth=2;" edge="1" parent="dhW5SiGHPYzBhZiWGdAr-43" source="dhW5SiGHPYzBhZiWGdAr-47" target="dhW5SiGHPYzBhZiWGdAr-44">
          <mxGeometry width="50" height="50" relative="1" as="geometry">
            <mxPoint x="290" y="230" as="sourcePoint" />
            <mxPoint x="340" y="180" as="targetPoint" />
          </mxGeometry>
        </mxCell>
        <mxCell id="dhW5SiGHPYzBhZiWGdAr-51" value="" style="endArrow=none;html=1;rounded=0;strokeWidth=2;" edge="1" parent="dhW5SiGHPYzBhZiWGdAr-43" source="dhW5SiGHPYzBhZiWGdAr-49" target="dhW5SiGHPYzBhZiWGdAr-44">
          <mxGeometry width="50" height="50" relative="1" as="geometry">
            <mxPoint x="290" y="230" as="sourcePoint" />
            <mxPoint x="340" y="180" as="targetPoint" />
          </mxGeometry>
        </mxCell>
        <mxCell id="dhW5SiGHPYzBhZiWGdAr-53" value="" style="endArrow=none;html=1;rounded=0;strokeWidth=2;" edge="1" parent="dhW5SiGHPYzBhZiWGdAr-43" source="dhW5SiGHPYzBhZiWGdAr-49" target="dhW5SiGHPYzBhZiWGdAr-45">
          <mxGeometry width="50" height="50" relative="1" as="geometry">
            <mxPoint x="290" y="230" as="sourcePoint" />
            <mxPoint x="340" y="180" as="targetPoint" />
          </mxGeometry>
        </mxCell>
        <mxCell id="dhW5SiGHPYzBhZiWGdAr-56" value="" style="endArrow=none;html=1;rounded=0;strokeWidth=2;" edge="1" parent="dhW5SiGHPYzBhZiWGdAr-43" source="dhW5SiGHPYzBhZiWGdAr-48" target="dhW5SiGHPYzBhZiWGdAr-47">
          <mxGeometry width="50" height="50" relative="1" as="geometry">
            <mxPoint x="290" y="230" as="sourcePoint" />
            <mxPoint x="340" y="180" as="targetPoint" />
          </mxGeometry>
        </mxCell>
        <mxCell id="dhW5SiGHPYzBhZiWGdAr-58" value="" style="endArrow=none;html=1;rounded=0;entryX=0.5;entryY=1;entryDx=0;entryDy=0;strokeWidth=2;" edge="1" parent="dhW5SiGHPYzBhZiWGdAr-43" source="dhW5SiGHPYzBhZiWGdAr-44" target="dhW5SiGHPYzBhZiWGdAr-46">
          <mxGeometry width="50" height="50" relative="1" as="geometry">
            <mxPoint x="290" y="230" as="sourcePoint" />
            <mxPoint x="340" y="180" as="targetPoint" />
          </mxGeometry>
        </mxCell>
        <mxCell id="dhW5SiGHPYzBhZiWGdAr-60" value="&lt;font style=&quot;font-size: 19px;&quot; face=&quot;Times New Roman&quot;&gt;2&lt;/font&gt;" style="text;html=1;align=center;verticalAlign=middle;resizable=0;points=[];autosize=1;strokeColor=none;fillColor=none;" vertex="1" parent="dhW5SiGHPYzBhZiWGdAr-43">
          <mxGeometry x="5" y="100" width="30" height="40" as="geometry" />
        </mxCell>
        <mxCell id="dhW5SiGHPYzBhZiWGdAr-61" value="&lt;font style=&quot;font-size: 19px;&quot; face=&quot;Times New Roman&quot;&gt;1&lt;/font&gt;" style="text;html=1;align=center;verticalAlign=middle;resizable=0;points=[];autosize=1;strokeColor=none;fillColor=none;" vertex="1" parent="dhW5SiGHPYzBhZiWGdAr-43">
          <mxGeometry x="125" width="30" height="40" as="geometry" />
        </mxCell>
        <mxCell id="dhW5SiGHPYzBhZiWGdAr-62" value="&lt;font style=&quot;font-size: 19px;&quot; face=&quot;Times New Roman&quot;&gt;3&lt;/font&gt;" style="text;html=1;align=center;verticalAlign=middle;resizable=0;points=[];autosize=1;strokeColor=none;fillColor=none;" vertex="1" parent="dhW5SiGHPYzBhZiWGdAr-43">
          <mxGeometry x="125" y="100" width="30" height="40" as="geometry" />
        </mxCell>
        <mxCell id="dhW5SiGHPYzBhZiWGdAr-63" value="&lt;font style=&quot;font-size: 19px;&quot; face=&quot;Times New Roman&quot;&gt;5&lt;/font&gt;" style="text;html=1;align=center;verticalAlign=middle;resizable=0;points=[];autosize=1;strokeColor=none;fillColor=none;" vertex="1" parent="dhW5SiGHPYzBhZiWGdAr-43">
          <mxGeometry x="65" y="200" width="30" height="40" as="geometry" />
        </mxCell>
        <mxCell id="dhW5SiGHPYzBhZiWGdAr-64" value="&lt;font style=&quot;font-size: 19px;&quot; face=&quot;Times New Roman&quot;&gt;4&lt;/font&gt;" style="text;html=1;align=center;verticalAlign=middle;resizable=0;points=[];autosize=1;strokeColor=none;fillColor=none;" vertex="1" parent="dhW5SiGHPYzBhZiWGdAr-43">
          <mxGeometry x="245" y="100" width="30" height="40" as="geometry" />
        </mxCell>
        <mxCell id="dhW5SiGHPYzBhZiWGdAr-65" value="&lt;font style=&quot;font-size: 19px;&quot; face=&quot;Times New Roman&quot;&gt;6&lt;/font&gt;" style="text;html=1;align=center;verticalAlign=middle;resizable=0;points=[];autosize=1;strokeColor=none;fillColor=none;" vertex="1" parent="dhW5SiGHPYzBhZiWGdAr-43">
          <mxGeometry x="185" y="200" width="30" height="40" as="geometry" />
        </mxCell>
        <mxCell id="dhW5SiGHPYzBhZiWGdAr-68" value="&lt;font style=&quot;font-size: 19px;&quot; face=&quot;Times New Roman&quot;&gt;1&lt;/font&gt;" style="text;html=1;align=center;verticalAlign=middle;resizable=0;points=[];autosize=1;strokeColor=none;fillColor=none;" vertex="1" parent="dhW5SiGHPYzBhZiWGdAr-43">
          <mxGeometry x="112" y="52" width="30" height="40" as="geometry" />
        </mxCell>
        <mxCell id="dhW5SiGHPYzBhZiWGdAr-69" value="&lt;font style=&quot;font-size: 19px;&quot; face=&quot;Times New Roman&quot;&gt;5&lt;/font&gt;" style="text;html=1;align=center;verticalAlign=middle;resizable=0;points=[];autosize=1;strokeColor=none;fillColor=none;" vertex="1" parent="dhW5SiGHPYzBhZiWGdAr-43">
          <mxGeometry x="70" y="87" width="30" height="40" as="geometry" />
        </mxCell>
        <mxCell id="dhW5SiGHPYzBhZiWGdAr-71" value="&lt;font style=&quot;font-size: 19px;&quot; face=&quot;Times New Roman&quot;&gt;3&lt;/font&gt;" style="text;html=1;align=center;verticalAlign=middle;resizable=0;points=[];autosize=1;strokeColor=none;fillColor=none;" vertex="1" parent="dhW5SiGHPYzBhZiWGdAr-43">
          <mxGeometry x="22" y="151" width="30" height="40" as="geometry" />
        </mxCell>
        <mxCell id="dhW5SiGHPYzBhZiWGdAr-73" value="&lt;font style=&quot;font-size: 19px;&quot; face=&quot;Times New Roman&quot;&gt;4&lt;/font&gt;" style="text;html=1;align=center;verticalAlign=middle;resizable=0;points=[];autosize=1;strokeColor=none;fillColor=none;" vertex="1" parent="dhW5SiGHPYzBhZiWGdAr-43">
          <mxGeometry x="169" y="151" width="30" height="40" as="geometry" />
        </mxCell>
        <mxCell id="dhW5SiGHPYzBhZiWGdAr-74" value="&lt;font style=&quot;font-size: 19px;&quot; face=&quot;Times New Roman&quot;&gt;2&lt;/font&gt;" style="text;html=1;align=center;verticalAlign=middle;resizable=0;points=[];autosize=1;strokeColor=none;fillColor=none;" vertex="1" parent="dhW5SiGHPYzBhZiWGdAr-43">
          <mxGeometry x="226" y="151" width="30" height="40" as="geometry" />
        </mxCell>
        <mxCell id="dhW5SiGHPYzBhZiWGdAr-76" value="(b)" style="text;html=1;align=center;verticalAlign=middle;resizable=0;points=[];autosize=1;strokeColor=none;fillColor=none;labelPosition=center;verticalLabelPosition=middle;fontFamily=Times New Roman;fontSize=20;" vertex="1" parent="dhW5SiGHPYzBhZiWGdAr-42">
          <mxGeometry x="115" y="240" width="50" height="40" as="geometry" />
        </mxCell>
      </root>
    </mxGraphModel>
  </diagram>
</mxfile>
